<svg width="360" height="720" viewBox="0 0 360 720" xmlns="http://www.w3.org/2000/svg">
  <defs>
    <linearGradient id="bg" x1="0" y1="0" x2="1" y2="1">
      <stop offset="0" stop-color="#030712" />
      <stop offset="1" stop-color="#0f172a" />
    </linearGradient>
    <filter id="shadow" x="-30%" y="-30%" width="160%" height="160%">
      <feDropShadow dx="0" dy="18" stdDeviation="18" flood-color="#020617" flood-opacity="0.55" />
    </filter>
  </defs>
  <rect width="360" height="720" rx="36" fill="url(#bg)" />
  <g filter="url(#shadow)">
    <rect x="26" y="42" width="308" height="636" rx="30" fill="rgba(15,23,42,0.85)" stroke="rgba(148,163,184,0.2)" />
  </g>
  <text x="60" y="110" fill="#f8fafc" font-family="'DM Sans', 'Inter', sans-serif" font-size="18" font-weight="600">Accountability hub</text>
  <text x="60" y="134" fill="#94a3b8" font-family="'DM Sans', 'Inter', sans-serif" font-size="12">Rundown messages queued for your buddies</text>
  <g transform="translate(56 170)">
    <rect width="248" height="96" rx="18" fill="rgba(132,204,22,0.12)" stroke="rgba(132,204,22,0.6)" />
    <text x="20" y="34" fill="#84cc16" font-weight="600" font-family="'DM Sans', 'Inter', sans-serif">Ready to send</text>
    <text x="20" y="56" fill="#e2e8f0" font-size="14" font-family="'DM Sans', 'Inter', sans-serif">“Jess missed 4.7 miles. Wanna ping them?”</text>
    <text x="20" y="78" fill="#94a3b8" font-size="12" font-family="'DM Sans', 'Inter', sans-serif">Scheduled • Sun 6:00 PM</text>
    <circle cx="210" cy="64" r="16" fill="rgba(15,23,42,0.8)" stroke="rgba(132,204,22,0.5)" />
    <text x="210" y="70" text-anchor="middle" fill="#84cc16" font-size="12" font-family="'DM Sans', 'Inter', sans-serif">3</text>
  </g>
  <g transform="translate(56 288)">
    <rect width="248" height="92" rx="18" fill="rgba(15,23,42,0.9)" stroke="rgba(148,163,184,0.25)" />
    <text x="20" y="32" fill="#f97316" font-weight="600" font-family="'DM Sans', 'Inter', sans-serif">Savage tone</text>
    <text x="20" y="54" fill="#e2e8f0" font-size="14" font-family="'DM Sans', 'Inter', sans-serif">“Cole owes 2 runs. Hold them to it.”</text>
    <text x="20" y="74" fill="#94a3b8" font-size="12" font-family="'DM Sans', 'Inter', sans-serif">Sent to 2 contacts</text>
    <rect x="178" y="24" width="54" height="20" rx="10" fill="rgba(15,23,42,0.8)" />
    <text x="205" y="38" text-anchor="middle" fill="#94a3b8" font-size="10" font-family="'DM Sans', 'Inter', sans-serif">PREVIEW</text>
  </g>
  <g transform="translate(56 398)">
    <rect width="248" height="92" rx="18" fill="rgba(15,23,42,0.9)" stroke="rgba(148,163,184,0.25)" />
    <text x="20" y="32" fill="#14b8a6" font-weight="600" font-family="'DM Sans', 'Inter', sans-serif">Encouraging tone</text>
    <text x="20" y="54" fill="#e2e8f0" font-size="14" font-family="'DM Sans', 'Inter', sans-serif">“Cheer them on—2 miles left by tonight.”</text>
    <text x="20" y="74" fill="#94a3b8" font-size="12" font-family="'DM Sans', 'Inter', sans-serif">Queued • Sunday</text>
    <rect x="190" y="24" width="42" height="20" rx="10" fill="rgba(15,23,42,0.85)" />
    <text x="211" y="38" text-anchor="end" fill="#94a3b8" font-size="10" font-family="'DM Sans', 'Inter', sans-serif">EDIT</text>
  </g>
  <g transform="translate(56 508)">
    <rect width="248" height="96" rx="18" fill="rgba(15,23,42,0.9)" stroke="rgba(148,163,184,0.25)" />
    <text x="20" y="32" fill="#f8fafc" font-weight="600" font-family="'DM Sans', 'Inter', sans-serif">Delivery log</text>
    <text x="20" y="54" fill="#94a3b8" font-size="12" font-family="'DM Sans', 'Inter', sans-serif">Last 30 days</text>
    <rect x="20" y="68" width="60" height="16" rx="8" fill="rgba(249,115,22,0.18)" />
    <rect x="86" y="68" width="60" height="16" rx="8" fill="rgba(248,250,252,0.12)" />
    <rect x="152" y="68" width="60" height="16" rx="8" fill="rgba(248,250,252,0.08)" />
  </g>
</svg>
