<svg width="40" height="40" viewBox="0 0 40 40" fill="none" xmlns="http://www.w3.org/2000/svg">
  <path d="M20 6c0 4-3 5.5-3 10 0 1.5.4 3 1 4.2-1.6-1.2-4-3.8-4-7.8 0-3 1.2-5.7 2.4-7.2C11 8.5 8 13.5 8 20c0 6.6 5 12 12 12s12-5.4 12-12c0-7.4-6-12.1-6-16-3 2.8-4 6.2-4 10z" stroke="#0f172a" stroke-width="2" stroke-linecap="round" stroke-linejoin="round" />
  <path d="M20 30c-3 0-5-2.2-5-5 0-2.5 1.7-4 3-5.5 0 2 1.6 4.5 3 5.5 1 1 2 2.5 2 4 0 0-1.5 1-3 1z" stroke="#0f172a" stroke-width="2" stroke-linecap="round" stroke-linejoin="round" />
</svg>
